<svg width="333" height="94" viewBox="0 0 333 94" fill="none" xmlns="http://www.w3.org/2000/svg">
<path d="M84.892 13.1375C82.4443 13.7596 80.178 14.4461 79.8456 14.6606C79.5132 14.8751 79.06 15.4328 78.788 15.9262L78.3045 16.8271L74.4669 17.0845C70.6897 17.3419 60.5064 18.5003 55.9133 19.1867C52.6498 19.6801 53.1937 20.0018 57.0011 19.8517C69.2393 19.3798 70.5386 19.2725 72.6236 18.6075C73.8625 18.2214 75.1015 17.9855 75.9476 17.9855H77.2771L76.5519 18.393C75.8569 18.7791 75.7965 18.9293 75.7965 20.9457C75.7663 22.8548 75.8569 23.1766 76.4613 23.7558C77.1563 24.4422 77.3376 25.5147 76.8541 26.4157C76.5821 26.8876 75.7058 27.145 69.6623 28.5608C58.9351 31.0491 57.9379 31.3708 55.7622 32.8509C53.5261 34.3525 53.5563 34.3525 45.7904 34.7386C40.8045 34.996 40.17 34.9746 39.2937 34.6743L38.2965 34.3096L39.8074 34.2882C41.56 34.2882 42.4967 33.9878 41.8017 33.6661C41.3787 33.473 37.4806 33.0011 36.3021 33.0011C35.9697 33.0011 35.3956 32.6579 34.8819 32.1645C34.3682 31.6282 33.7941 31.285 33.3106 31.2421C32.7969 31.1992 31.9206 30.5986 30.3795 29.1828C29.1708 28.0888 28.1736 27.1021 28.1736 27.0163C28.1736 26.6731 29.4729 26.5873 30.2888 26.8876C32.4947 27.7027 35.4258 30.1481 35.4258 31.1778C35.4258 31.3708 35.5769 31.4566 35.728 31.3923C35.9093 31.3279 36.0302 30.8775 36.0302 30.427C36.0302 29.3973 35.1841 28.6251 32.5854 27.3166C29.8356 25.9223 29.3219 25.8365 27.539 26.3728C26.7231 26.6302 26.0584 26.9734 26.0584 27.145C26.0584 27.574 27.7808 29.569 29.5032 31.1563C30.9234 32.4219 31.3464 33.1513 30.3493 32.4863C29.8053 32.1645 29.3219 32.1645 22.5531 32.6793C18.5946 32.9797 15.2103 33.2585 15.0289 33.3014C14.8779 33.3443 15.3311 33.4945 16.0866 33.6446C17.7485 33.9664 23.0668 33.7948 27.2066 33.28C29.2614 33.0226 30.1075 33.0011 30.3493 33.1727C30.591 33.3443 30.2284 33.5374 29.0197 33.9235C27.5692 34.374 26.0584 35.3393 26.0584 35.7897C26.0584 35.8755 26.5418 36.1115 27.1462 36.326C28.7779 36.8623 33.7941 36.7121 35.8489 36.0471C37.4806 35.5323 38.3871 35.7039 37.118 36.3045C35.456 37.0553 29.8053 37.6345 27.811 37.2269C26.9649 37.0768 26.9649 37.0768 26.9649 38.0421C26.9649 39.2004 27.5692 39.5651 30.1982 39.9083C31.7393 40.1014 32.3436 40.0799 34.9725 39.6294C37.813 39.1361 38.5382 39.1146 47.2107 39.1146C55.4601 39.1146 56.6083 39.1575 58.089 39.5222C61.564 40.3802 74.6784 44.9707 76.1893 45.8717C77.6095 46.6868 77.8815 46.7726 80.0874 46.9013L82.4443 47.0515L81.5378 50.4407C80.8428 52.9505 80.45 53.9158 80.0571 54.1303C79.06 54.6451 71.8984 56.211 70.0249 56.3397C69.0277 56.3826 68.2723 56.3826 68.363 56.3183C68.6349 56.1252 75.585 54.2375 76.0382 54.2375C76.4915 54.2375 76.7332 53.1435 77.0052 49.6041L77.2167 47.2231L76.1893 46.4508C74.8597 45.4641 59.4488 40.2086 56.7594 39.8225C55.3996 39.6294 53.4053 39.6294 48.1474 39.8439C44.4004 39.9727 40.7139 40.1014 39.9584 40.1228C38.1454 40.1657 37.8432 40.3802 37.8432 41.6029C37.8432 42.1606 37.7223 42.6755 37.5713 42.7398C37.4202 42.8042 36.5439 42.2894 35.6373 41.5815L34.0056 40.2944H31.8299C29.624 40.2944 27.9318 39.9512 26.9045 39.2862C26.5116 39.0288 26.3605 38.6212 26.3605 37.6989C26.3605 37.0124 26.2397 36.3903 26.0584 36.326C25.8771 36.2402 25.7562 36.7336 25.7562 37.6131V39.0503L27.8714 40.5304C30.0471 42.0534 30.2586 42.1177 32.948 42.3108C34.2473 42.3966 34.7912 42.5897 35.9697 43.2975C37.6619 44.2843 38.9613 44.4559 39.203 43.6622C39.2634 43.4048 39.3843 42.6969 39.4145 42.1177L39.5052 41.0452L43.2824 40.7878C45.3674 40.6591 48.9633 40.4875 51.29 40.4017C54.8255 40.273 55.7018 40.3159 56.6688 40.5947C57.2731 40.7878 57.7868 41.0881 57.7868 41.2812C57.7868 41.4742 56.699 43.319 55.3996 45.4212C51.9246 50.9555 49.0237 56.1252 48.8424 57.1119C48.7518 57.6268 49.1144 59.8148 49.7187 62.346C50.595 66.057 50.867 66.7863 51.4713 67.2368C51.8642 67.5371 58.6933 70.862 66.6406 74.6373C78.1232 80.0859 81.2356 81.4587 81.7493 81.3515C82.1119 81.2871 83.925 80.7509 85.7381 80.1717C87.5813 79.614 91.4492 78.4127 94.3501 77.5118C105.984 73.9295 115.956 70.626 116.771 70.0683C117.587 69.532 117.618 69.4248 117.618 67.5371C117.618 65.7567 117.678 65.5207 118.403 64.8343L119.219 64.1049L119.37 57.7984C119.461 54.3448 119.431 51.2558 119.31 50.9341C119.159 50.5265 118.917 50.3764 118.373 50.3764C117.92 50.3764 117.618 50.2476 117.618 50.076C117.618 49.7328 113.659 46.4723 113.448 46.6224C113.357 46.6653 114.022 47.266 114.868 47.9524C115.714 48.6174 116.409 49.2395 116.409 49.3038C116.409 49.4754 114.324 50.076 104.473 52.736C96.5862 54.8596 88.2159 57.2192 86.1913 57.8627L84.8315 58.2917L83.7135 57.5195L82.6256 56.7687L80.9335 57.3479C79.6039 57.8198 78.9693 57.9056 77.9721 57.8198C76.7634 57.7126 75.041 56.876 76.0382 56.876C76.28 56.876 76.5519 57.0047 76.6426 57.1763C76.7634 57.3479 77.3376 57.4552 78.2743 57.4552C79.483 57.4552 80.0874 57.305 81.5378 56.64C82.5048 56.1681 83.5624 55.6104 83.8343 55.3959C84.1365 55.1599 84.7107 53.8299 85.1337 52.4142C85.5567 50.9984 85.9798 49.7972 86.0704 49.7543C86.282 49.6041 86.7957 50.2047 86.7957 50.6123C86.7957 50.8054 87.0072 51.3202 87.2489 51.7278C87.9137 52.8647 87.8231 53.0792 86.4935 53.358C85.8287 53.4867 85.2848 53.7012 85.2848 53.8085C85.2848 54.023 87.3094 53.5296 99.1849 50.312C103.748 49.0678 108.794 47.7164 110.365 47.2874C111.937 46.8799 113.085 46.5366 112.904 46.5152C112.722 46.5152 112.088 45.9575 111.483 45.271C110.909 44.6061 109.58 43.3404 108.552 42.461C106.981 41.131 106.769 40.895 107.374 40.9808C107.948 41.0667 117.466 42.9329 122.422 43.9196C123.087 44.0483 123.238 44.3057 123.903 46.5366C124.296 47.888 124.779 49.1107 124.93 49.2395C125.474 49.7114 126.169 49.5612 127.71 48.6603C128.526 48.1884 129.493 47.8022 129.886 47.8022C131.155 47.8022 132.696 47.2016 133.331 46.4723C133.814 45.8931 133.935 45.3997 133.935 43.7051C133.935 41.4528 133.875 41.367 131.82 40.5947C130.883 40.2515 130.823 40.1872 131.427 40.1228C131.79 40.0799 132.998 40.2515 134.086 40.4875C136.594 41.0452 137.954 41.0452 139.556 40.5304C141.187 39.9941 141.338 39.7796 140.432 39.3506C139.707 39.0074 139.616 39.0074 138.861 39.4364C138.437 39.6723 137.652 39.8654 137.108 39.8654C135.869 39.8654 131.759 39.2219 131.397 38.9859C130.792 38.5998 131.457 38.6212 133.18 39.0288C135.506 39.5865 137.712 39.5007 139.163 38.7929C140.19 38.2995 140.22 38.2351 140.341 36.6478C140.432 35.7683 140.432 34.9102 140.341 34.7815C140.281 34.6314 139.525 34.2024 138.679 33.8377L137.108 33.1513L138.528 32.8938C139.797 32.6793 140.402 32.3147 143.816 29.7835C145.962 28.2175 147.714 26.8232 147.775 26.6731C147.865 26.3728 146.143 25.815 144.421 25.6005C143.484 25.4718 143.151 25.5362 142.184 26.0725C141.55 26.4157 139.737 27.3381 138.135 28.1317C134.811 29.762 133.542 30.62 132.998 31.5853C132.787 31.95 132.454 32.3147 132.303 32.4005C132.122 32.4863 130.672 32.5506 129.1 32.5506C124.235 32.5292 112.178 33.7948 112.178 34.3096C112.178 34.567 113.81 34.5456 120.639 34.1809C126.774 33.8377 129.735 33.5803 131.518 33.2156C132.092 33.1084 132.666 33.0011 132.787 33.0011C132.908 33.0011 131.759 33.902 130.188 34.9746C127.65 36.7765 126.653 37.7632 127.076 38.0635C127.166 38.1279 127.499 38.0635 127.831 37.9134C128.284 37.7203 128.647 37.7203 129.402 37.9134C129.946 38.0421 130.46 38.1064 130.551 38.0635C130.611 37.9992 130.762 37.3771 130.883 36.6478C131.155 34.996 131.487 34.7601 132.847 35.1033C134.66 35.5752 136.685 35.6396 138.135 35.2749C139.676 34.8673 140.069 34.9531 138.981 35.4465C137.863 35.9828 134.66 36.1115 133.029 35.7039C132.303 35.5323 131.639 35.4036 131.578 35.4465C131.518 35.4894 131.397 36.09 131.306 36.7765C131.215 37.4843 130.974 38.1064 130.792 38.1922C130.611 38.278 129.886 38.278 129.191 38.2137C128.435 38.1493 127.74 38.1922 127.499 38.3209C127.197 38.4925 126.592 38.4496 125.142 38.1493C124.084 37.9134 120.428 37.3342 117.013 36.8408C113.599 36.3474 110.305 35.8112 109.67 35.6181C108.945 35.4251 108.039 34.8673 107.283 34.2024C106.618 33.6017 105.803 32.9797 105.47 32.808C104.654 32.4005 98.4596 30.5128 91.1772 28.4535C87.8533 27.5097 84.9222 26.5873 84.62 26.3942C84.348 26.2012 84.0459 25.7292 83.9552 25.386C83.8041 24.8498 83.8948 24.6138 84.5293 24.2062C85.2244 23.7343 85.2848 23.5627 85.2848 21.8252C85.2848 19.9375 85.2848 19.9375 84.2574 19.3369L83.1998 18.7362L87.6418 18.822C90.0894 18.8435 93.6551 18.8006 95.5588 18.7148C98.9129 18.5432 98.7316 18.5217 91.0261 18.393C83.4113 18.2643 81.6587 18.1356 81.6587 17.7709C81.6587 17.6851 82.1422 17.5564 82.7767 17.4921C83.8646 17.3634 93.1414 13.1804 93.1414 12.8158C93.1414 12.494 91.3887 11.9792 90.3613 12.0006C89.8174 12.0006 87.3698 12.5155 84.892 13.1375ZM80.2989 16.2694C79.4528 16.5268 78.9391 16.5268 78.9391 16.2694C78.9391 16.1407 79.3924 16.0549 79.9363 16.0763C80.7522 16.0763 80.8126 16.1192 80.2989 16.2694ZM81.0543 17.1274C81.0543 17.3848 79.755 17.7709 78.9995 17.7709C78.5765 17.7495 78.6369 17.6851 79.2111 17.3419C79.9665 16.8915 81.0543 16.7628 81.0543 17.1274ZM82.8069 19.1009C82.7465 19.3583 82.5048 19.6157 82.263 19.6586C81.8702 19.7659 81.8702 19.723 82.2328 19.4227C82.5048 19.1867 82.535 19.058 82.2932 19.058C82.1119 19.058 81.9609 18.9507 81.9609 18.8435C81.9609 18.7148 82.1724 18.629 82.4443 18.629C82.7465 18.629 82.8674 18.7791 82.8069 19.1009ZM79.9967 19.723L81.8098 19.8517L80.2082 19.8731C78.6067 19.916 76.5217 19.4227 76.5217 19.0366C76.5217 18.9293 76.8843 19.0151 77.3376 19.2082C77.7908 19.4227 78.9693 19.6586 79.9967 19.723ZM84.3178 21.3962C84.4387 22.7047 83.9854 23.198 82.3839 23.5627C81.3867 23.7987 81.3565 23.8416 81.3565 24.9356V26.0725L80.2989 26.051L79.2413 26.0296V24.721C79.2413 23.5412 79.1808 23.3911 78.3347 22.9621C77.5189 22.5331 77.4282 22.3614 77.4282 21.3533V20.2378H80.8428H84.2272L84.3178 21.3962ZM84.6804 27.5526C85.587 27.8314 89.0015 28.8182 92.2348 29.7406C99.7892 31.9286 103.536 33.0869 104.413 33.4945C104.805 33.6661 105.289 34.2024 105.47 34.6957C106.256 36.5191 106.377 36.5405 114.747 37.7203C118.917 38.2995 123.298 38.9001 124.537 39.0503L126.774 39.3506L124.507 39.608C122.271 39.8868 122.211 39.8654 116.741 38.9001C113.689 38.3853 110.063 37.8276 108.673 37.6774L106.135 37.42L103.808 38.1279C97.8553 39.9512 88.79 42.5253 86.01 43.1903C81.3263 44.3272 78.4556 44.177 76.0986 42.654C74.7389 41.7745 72.7445 41.0237 64.8879 38.4496L59.7509 36.755L52.4987 36.7765C48.2683 36.7979 44.3098 36.9266 42.9802 37.0768C39.4447 37.5058 37.5108 37.5701 37.1482 37.3127C36.9065 37.1411 37.2389 37.0768 38.3871 37.0768C39.5354 37.0768 40.1095 36.9695 40.5326 36.6692C41.0161 36.326 42.0435 36.2187 47.5733 35.897C54.1607 35.5323 56.3061 35.2964 60.8086 34.3525L63.3771 33.8162L68.091 35.2105C70.6897 35.9828 74.5576 37.2055 76.6728 37.9134C78.788 38.6427 80.7824 39.2219 81.0845 39.2219C81.3867 39.2219 84.1063 38.4925 87.1281 37.5916C90.18 36.6907 94.0781 35.5752 95.8307 35.1033C97.5833 34.6314 99.1244 34.1595 99.2755 34.0736C99.8194 33.7304 83.9854 28.9254 82.2932 28.9254C80.873 28.9254 72.4423 30.8775 64.7368 33.0011C60.8086 34.0736 58.2098 34.7172 57.6659 34.7172C57.5451 34.7172 57.7264 34.5241 58.1192 34.3096C58.784 33.9449 58.8142 33.8377 58.4818 33.2371C58.1494 32.615 58.1796 32.5506 58.9351 32.2718C60.597 31.6711 78.2743 27.2952 80.6011 26.9305C81.5076 26.7803 82.8372 26.9734 84.6804 27.5526ZM87.3396 30.856C89.7872 31.5424 92.9601 32.5077 94.3501 32.9797L96.9186 33.8162L95.1659 34.374C91.5096 35.5323 82.8069 37.9348 82.2328 37.9348C81.9306 37.9348 80.5406 37.5058 79.1506 36.991C77.7908 36.4762 74.7691 35.5538 72.4423 34.9531C70.1156 34.3311 67.819 33.7304 67.3658 33.5803C66.5197 33.3229 66.8823 33.2156 74.1647 31.4566C78.365 30.427 82.0515 29.5904 82.3537 29.5904C82.6559 29.569 84.892 30.1481 87.3396 30.856ZM135.446 31.285C135.446 31.4781 134.237 31.9286 133.754 31.9286C133.361 31.9286 133.724 31.3065 134.177 31.2207C135.083 31.0491 135.446 31.0705 135.446 31.285ZM136.594 33.044C136.352 33.5159 135.506 33.7733 135.083 33.473C134.781 33.2585 134.781 33.1513 135.144 33.0011C135.778 32.7008 136.715 32.7437 136.594 33.044ZM33.0386 33.2156C33.7638 33.2156 34.1869 33.3014 34.066 33.4301C33.7638 33.7948 31.6184 33.6875 31.1651 33.28C30.8025 32.9582 30.8025 32.9367 31.286 33.0655C31.5882 33.1513 32.404 33.2156 33.0386 33.2156ZM30.5003 34.7601C30.4097 34.9317 30.319 34.8673 30.319 34.6314C30.2888 34.3954 30.3795 34.2667 30.4701 34.3525C30.5608 34.4169 30.591 34.6099 30.5003 34.7601ZM38.5986 34.803C39.2634 35.2534 39.2937 35.3393 38.8706 35.4465C38.5986 35.5323 38.3569 35.5538 38.3267 35.5323C38.2965 35.4894 37.9641 35.2105 37.5713 34.8673C36.9669 34.3954 36.9367 34.2882 37.3295 34.2882C37.6015 34.2882 38.1756 34.5241 38.5986 34.803ZM33.8545 35.7254C33.371 35.7683 32.6458 35.7683 32.1925 35.7254C31.709 35.6825 32.1019 35.6396 33.0084 35.6396C33.9149 35.6396 34.3078 35.6825 33.8545 35.7254ZM29.6845 36.0042C30.2888 36.1329 30.319 36.1758 29.8356 36.1758C29.5032 36.1758 28.9592 36.1115 28.6269 36.0042C27.8714 35.7683 28.6571 35.7683 29.6845 36.0042ZM130.128 38.9216C130.4 38.9859 130.611 39.1361 130.611 39.2433C130.611 39.5651 129.493 39.4578 129.1 39.1146C128.798 38.8572 128.798 38.7929 129.191 38.7929C129.433 38.7929 129.856 38.8572 130.128 38.9216ZM112.813 40.6376C118.131 41.4313 119.763 41.7745 122.06 42.5468L124.809 43.4692L124.96 42.6969C125.051 42.1392 124.96 41.8174 124.628 41.6458C123.661 41.0881 124.628 41.1096 126.169 41.6458C127.861 42.2679 130.43 42.4181 131.941 42.0105C132.877 41.7745 133.301 42.0963 132.454 42.4181C131.729 42.6969 127.771 42.7184 126.471 42.461C125.716 42.3108 125.474 42.3323 125.353 42.5897C125.021 43.1903 125.172 44.4988 125.625 44.9493C126.562 45.8931 131.064 46.0004 132.424 45.1209C132.757 44.9064 133.029 44.8206 133.029 44.9278C132.998 45.5713 131.669 46.0862 130.097 46.0862C128.768 46.0862 128.345 46.2792 127.136 47.4376C126.683 47.888 126.23 48.1884 126.139 48.124C125.988 48.0167 125.293 45.7859 124.96 44.4344C124.809 43.7695 124.688 43.7051 122.332 43.2117C117.557 42.1821 106.165 40.0799 105.379 40.0799C104.926 40.0799 104.654 39.9941 104.775 39.8654C105.077 39.5222 106.044 39.608 112.813 40.6376ZM126.23 40.2086C125.081 40.5089 123.963 41.2168 123.933 41.6244C123.903 41.9676 123.842 42.0105 123.752 41.7531C123.54 41.1954 124.205 40.5089 125.263 40.1872C125.807 40.037 126.29 39.9512 126.381 40.0156C126.471 40.0799 126.411 40.1657 126.23 40.2086ZM106.256 42.0534C107.948 43.2761 110.97 46.1934 110.97 46.6224C110.97 46.7726 110.365 47.0086 109.64 47.1587L108.28 47.4161L105.319 45.5928C101.24 43.083 101.149 43.0401 101.542 42.225C101.723 41.8818 101.814 41.5815 101.753 41.5815C101.663 41.5815 100.031 42.0748 98.0668 42.6755C96.1027 43.2761 93.6853 44.0054 92.6881 44.3057C88.6994 45.4855 84.7107 46.9657 84.1667 47.459C83.8041 47.7593 83.23 49.0893 82.7465 50.741C81.7493 54.0659 81.6587 54.3019 81.4472 54.1517C81.2356 54.0016 83.1696 47.5234 83.5624 47.2016C84.7107 46.1934 101.512 40.9594 103.657 40.9379C104.473 40.9379 104.956 41.1525 106.256 42.0534ZM131.518 41.367C131.518 41.4742 131.276 41.5815 131.004 41.5815C130.551 41.5815 130.52 41.5386 130.913 41.367C131.487 41.1096 131.518 41.1096 131.518 41.367ZM129.795 41.7316C129.402 41.7745 128.738 41.7745 128.284 41.7316C127.801 41.6887 128.133 41.6458 128.949 41.6458C129.795 41.6458 130.158 41.6887 129.795 41.7316ZM61.3827 44.0698C62.0475 44.413 62.0475 44.413 61.4733 44.8849C60.2344 45.8288 56.0946 50.6123 53.647 53.9158C51.1994 57.2192 50.1418 58.4204 50.7763 57.2406C51.8339 55.2672 56.2759 48.4672 57.6357 46.7082C60.2646 43.319 60.1136 43.4477 61.3827 44.0698ZM96.4653 45.5928C93.5342 46.5581 87.0978 48.3171 86.9165 48.1884C86.8561 48.124 88.9411 47.4805 91.5398 46.7297C94.1688 46.0004 96.6466 45.2496 97.0696 45.0994C97.4927 44.9493 98.0366 44.8206 98.2783 44.8206C98.5201 44.8206 97.7042 45.1638 96.4653 45.5928ZM102.69 46.2149C104.141 46.9871 105.5 47.6735 105.712 47.7379C105.954 47.8022 106.135 47.9095 106.135 47.9953C106.135 48.1669 104.11 48.6603 103.476 48.6603C103.325 48.6603 102.72 48.1026 102.207 47.4161C101.663 46.7511 100.907 45.8717 100.484 45.4855C100.091 45.1209 99.8497 44.7991 99.9403 44.7991C100.031 44.7991 101.27 45.4426 102.69 46.2149ZM65.4016 45.1209C65.4923 45.2067 65.0995 45.9146 64.5555 46.7297C63.9814 47.5234 63.5281 48.3385 63.5281 48.5316C63.5281 48.8104 68.6953 50.8912 71.4754 51.7063C71.8984 51.835 72.2006 51.5776 73.1071 50.2691C73.7115 49.3896 74.2554 48.7032 74.346 48.7461C74.4065 48.8104 74.3158 49.3467 74.1345 49.9473C73.9532 50.548 73.8021 51.3202 73.8021 51.6634C73.8021 52.1997 73.6812 52.3069 73.0165 52.3069C72.4121 52.3069 63.4073 49.2395 61.7453 48.4672C61.2618 48.2527 61.5036 47.9095 63.4677 46.0218C64.4951 45.078 65.0088 44.842 65.4016 45.1209ZM69.9947 46.9657C71.7473 47.5877 73.1978 48.1669 73.1978 48.2742C73.1978 48.3814 72.8049 48.9391 72.3517 49.5183L71.4754 50.5909L68.1212 49.4111L64.7368 48.2527L65.5527 47.0515C66.006 46.4079 66.4592 45.8717 66.5801 45.8717C66.701 45.8717 68.2421 46.365 69.9947 46.9657ZM97.0999 46.5366C97.7042 46.7511 99.487 48.553 99.487 48.9177C99.487 49.3896 97.1603 48.2098 96.6768 47.5019C95.8912 46.3007 95.9818 46.1076 97.0999 46.5366ZM95.6796 47.5663L96.1329 48.1669L91.6909 49.3467L87.2489 50.5265L86.705 49.883C86.4028 49.5398 86.1913 49.2395 86.2518 49.1966C86.4935 49.0678 94.5314 46.9657 94.8638 46.9442C95.0753 46.9442 95.4379 47.2231 95.6796 47.5663ZM67.3658 51.17C72.956 53.1006 73.4697 53.3151 73.4697 53.8299C73.4999 54.3233 73.2884 54.452 71.6264 54.881C70.5688 55.1385 69.1184 55.5889 68.363 55.8892L67.0032 56.4255L64.2836 55.3959C62.0777 54.5807 61.3827 54.4091 60.6877 54.5378C59.902 54.6665 60.0833 54.7738 63.2562 55.8463C65.1297 56.4899 66.8823 57.0261 67.1542 57.0261C67.396 57.0261 67.1542 57.1977 66.5801 57.3908L65.5527 57.7555L62.7727 56.7258C60.3553 55.8463 59.8718 55.7391 59.2977 55.9536C58.6631 56.1896 58.6631 56.2754 58.8444 59.3428C59.1164 63.3756 59.3279 63.9977 60.9294 65.0702C62.1684 65.9068 71.6264 69.768 73.0467 70.0254C73.5302 70.1112 73.9532 70.0039 74.3762 69.7036C74.9504 69.2961 75.0108 69.0172 75.0108 66.1642C75.0108 62.7535 75.1619 62.4103 76.6426 62.8179C77.0958 62.9251 78.1232 63.0324 78.9089 63.0324H80.3593L80.5406 62.0242C80.7219 60.8015 81.7796 60.0293 83.23 60.0293C84.3783 60.0293 84.1365 60.2438 82.4746 60.6728L81.2054 60.9946L81.0241 62.6034C80.9032 63.4829 80.8126 67.5371 80.7824 71.5913C80.7522 77.6834 80.6917 78.9275 80.3291 78.8417C79.8456 78.713 67.1542 73.0285 59.1164 69.3175C55.9133 67.8589 53.224 66.5074 53.1031 66.2929C52.9822 66.0999 52.7405 64.4482 52.5592 62.6463L52.2268 59.3643L53.2542 58.0343C56.9407 53.1864 60.4459 49.0893 60.9294 49.0893C61.1107 49.0893 64.0116 50.0117 67.3658 51.17ZM117.013 49.9473C117.013 50.076 116.681 50.3764 116.258 50.6338C115.533 51.0628 115.502 51.2129 115.502 53.358C115.502 54.6022 115.412 57.305 115.291 59.3428L115.11 63.0753L107.646 65.7138C100.786 68.1592 86.705 72.8784 86.0704 72.9642C85.9194 72.9856 85.8287 70.433 85.8589 66.9365L85.9496 60.8873L84.892 60.0078C83.8646 59.1712 83.2904 58.3132 83.7739 58.3132C83.8948 58.3132 84.3178 58.6564 84.7107 59.064C85.6172 59.9864 85.8287 60.0078 85.9496 59.1498C86.0402 58.4848 86.1913 58.4204 91.6305 56.7687C94.7127 55.8463 99.3662 54.5378 101.995 53.8943C104.624 53.2508 109.036 52.0495 111.816 51.2344C114.596 50.4407 116.892 49.7757 116.953 49.7543C116.983 49.7328 117.013 49.8401 117.013 49.9473ZM118.403 54.023C118.313 55.782 118.131 58.6993 118.041 60.4797C117.89 62.9895 117.738 63.8046 117.346 64.1049C116.469 64.8343 89.1526 74.4228 86.1611 75.0449C85.0128 75.2809 83.653 74.7875 83.0789 73.908C82.6256 73.2645 82.5652 72.3206 82.5652 67.1295V61.1018H83.3206H84.0761V66.8721C84.0761 70.0468 84.197 72.8998 84.348 73.1787C84.9222 74.2298 85.4963 74.1225 93.3529 71.5055C106.407 67.1724 115.623 63.8046 116.016 63.2255C116.228 62.9037 116.5 60.4583 116.741 56.9189C116.923 53.7227 117.134 51.0628 117.225 50.9555C117.285 50.8697 117.648 50.8054 117.98 50.8054C118.585 50.8054 118.615 50.8697 118.403 54.023ZM75.5245 57.9056C75.6152 58.2703 76.0382 58.7208 76.4613 58.9138C77.4282 59.3643 80.178 59.3428 81.7796 58.8709C82.4443 58.6779 83.0487 58.5706 83.1393 58.635C83.7135 59.0425 79.6039 59.9006 77.7606 59.7504C76.7634 59.6646 76.1893 59.493 75.6756 59.0425L74.9504 58.4633L75.041 60.3081C75.1317 61.9384 75.0713 62.2173 74.5576 62.4961C73.8021 62.8822 73.0769 62.9037 72.6236 62.5176C72.3215 62.2602 72.4121 62.1315 73.1675 61.8526C74.1043 61.5308 74.1043 61.5094 74.1043 59.8148C74.1043 58.8709 74.0136 58.0987 73.923 58.0987C73.8021 58.0987 72.8654 58.4848 71.8078 58.9567C70.7501 59.4286 69.7227 59.8148 69.5414 59.8148C69.1184 59.8148 73.1978 57.734 74.1949 57.4552C75.2223 57.1548 75.313 57.1977 75.5245 57.9056ZM70.6293 58.2274C68.3025 59.6002 64.0418 60.8873 61.7755 60.8873C60.8992 60.8873 60.7481 60.9517 60.8992 61.2949C60.9899 61.5952 60.9294 61.681 60.597 61.5952C59.9927 61.4236 60.2344 60.8873 61.141 60.4154C62.1986 59.8577 69.8436 57.6911 70.7804 57.6911H71.5358L70.6293 58.2274ZM63.3468 59.2141C63.2562 59.2999 62.682 59.2356 62.0777 59.0425C61.4733 58.8495 60.7783 58.6564 60.597 58.5921C60.3855 58.5277 60.2042 58.3561 60.2042 58.1845C60.2042 57.97 60.6273 58.0343 61.836 58.4633C62.7425 58.7851 63.4375 59.1069 63.3468 59.2141ZM63.8001 62.5819C64.0418 62.6892 64.1325 62.9251 64.0418 63.1182C63.8908 63.4185 63.7094 63.44 63.226 63.2469C62.8936 63.1182 62.6216 62.8822 62.6216 62.7106C62.6216 62.346 63.1655 62.3031 63.8001 62.5819ZM64.2836 65.1346C64.4045 65.4778 65.2203 65.8854 67.3356 66.6361L70.2364 67.6443L71.566 66.5932L72.9258 65.5422L72.8352 67.1295C72.7445 68.674 72.7143 68.7169 71.9891 68.7169C70.0854 68.6954 60.2042 64.3624 60.2042 63.5472C60.2042 63.4185 61.0805 63.633 62.1381 63.9977C63.4979 64.4482 64.1627 64.7914 64.2836 65.1346ZM116.5 67.8589L116.258 69.3604L114.898 69.8538C112.994 70.5402 97.7949 75.3881 90.452 77.6405C87.0676 78.6916 83.925 79.5496 83.4717 79.5496H82.6559L82.8069 77.8764C82.8674 76.9755 82.958 76.2033 83.0185 76.1604C83.0487 76.1389 83.5322 76.2676 84.0761 76.4607C85.0128 76.8039 85.1337 76.8039 86.7654 76.332C91.2981 75.002 113.961 67.0652 115.956 66.0999C116.741 65.7138 116.802 65.9068 116.5 67.8589Z" fill="#AC6AFF"/>
<path d="M80.5406 20.7098C77.7908 20.7956 77.7304 20.7956 77.7304 21.3104C77.7304 22.7261 79.3017 23.5413 81.4471 23.241C83.2602 22.9621 83.7739 22.576 83.7739 21.5249C83.7739 20.9886 83.6832 20.581 83.5624 20.6025C83.4113 20.6239 82.0515 20.6883 80.5406 20.7098Z" fill="#AC6AFF"/>
<path d="M95.2566 37.2698C86.7352 39.5651 86.7957 39.5436 85.315 41.4099C84.6502 42.2679 84.2574 43.0187 84.4085 43.0616C84.9222 43.1688 91.6607 41.367 100.303 38.75L106.135 36.991L104.322 36.4118C103.355 36.09 102.297 35.7683 101.995 35.7039C101.693 35.6396 98.6712 36.3474 95.2566 37.2698Z" fill="#AC6AFF"/>
<path d="M102.327 54.4949C100.968 55.6747 100.333 56.9833 100.152 58.9567C100.001 61.1876 100.394 62.3031 101.753 63.4614C103.053 64.5554 103.083 64.963 101.874 65.5851C100.786 66.1642 100.907 66.4002 102.116 66.0784C102.569 65.9497 103.597 65.6923 104.413 65.4778C106.105 65.0488 106.316 64.6412 104.745 64.8128L103.627 64.9415L103.778 59.3858C103.959 53.2937 103.929 53.165 102.327 54.4949Z" fill="#AC6AFF"/>
<path d="M93.9875 56.64C93.1716 56.876 92.537 57.1548 92.537 57.2621C92.537 57.5195 92.8694 57.4981 93.7457 57.1334C94.8638 56.6829 95.4379 56.7473 96.4955 57.4123C97.251 57.9056 97.4323 58.163 97.4323 58.9567C97.4625 60.2438 96.9186 61.3378 95.9214 62.0027C95.2264 62.4747 88.3368 64.8343 88.1253 64.6841C88.0648 64.6627 87.944 63.4829 87.8533 62.0671C87.6116 58.7637 87.5209 58.399 86.9468 58.7422C86.3424 59.1069 86.282 69.6393 86.8863 70.1326C88.095 71.1623 88.1555 71.055 88.0648 68.3522C87.9742 66.3573 88.0346 65.7138 88.367 65.5851C88.5785 65.4778 90.3311 64.8986 92.2348 64.298C96.4049 62.9466 97.4625 62.4318 98.2481 61.2305C99.3662 59.6217 98.9129 57.305 97.3416 56.5113C96.4049 56.0608 95.7099 56.0823 93.9875 56.64Z" fill="#AC6AFF"/>
<path d="M78.093 49.5827C78.0326 50.8912 77.8815 52.2855 77.7606 52.6716C77.4887 53.3151 77.5189 53.3366 78.1837 53.1221C78.5463 53.0148 78.8485 52.8003 78.8182 52.6502C78.7578 52.1997 79.2715 47.9095 79.4226 47.5234C79.5435 47.2445 79.4226 47.1587 78.8787 47.1587C78.1837 47.1587 78.1837 47.2231 78.093 49.5827Z" fill="#AC6AFF"/>
<path d="M181 69H166.636V22.4545H181.636C186.152 22.4545 190.015 23.3864 193.227 25.25C196.439 27.0985 198.902 29.7576 200.614 33.2273C202.326 36.6818 203.182 40.8182 203.182 45.6364C203.182 50.4848 202.318 54.6591 200.591 58.1591C198.864 61.6439 196.348 64.3258 193.045 66.2045C189.742 68.0682 185.727 69 181 69ZM172.273 64H180.636C184.485 64 187.674 63.2576 190.205 61.7727C192.735 60.2879 194.621 58.1742 195.864 55.4318C197.106 52.6894 197.727 49.4242 197.727 45.6364C197.727 41.8788 197.114 38.6439 195.886 35.9318C194.659 33.2045 192.826 31.1136 190.386 29.6591C187.947 28.1894 184.909 27.4545 181.273 27.4545H172.273V64ZM227 69H212.636V22.4545H227.636C232.152 22.4545 236.015 23.3864 239.227 25.25C242.439 27.0985 244.902 29.7576 246.614 33.2273C248.326 36.6818 249.182 40.8182 249.182 45.6364C249.182 50.4848 248.318 54.6591 246.591 58.1591C244.864 61.6439 242.348 64.3258 239.045 66.2045C235.742 68.0682 231.727 69 227 69ZM218.273 64H226.636C230.485 64 233.674 63.2576 236.205 61.7727C238.735 60.2879 240.621 58.1742 241.864 55.4318C243.106 52.6894 243.727 49.4242 243.727 45.6364C243.727 41.8788 243.114 38.6439 241.886 35.9318C240.659 33.2045 238.826 31.1136 236.386 29.6591C233.947 28.1894 230.909 27.4545 227.273 27.4545H218.273V64ZM284.091 34.0909C283.818 31.7879 282.712 30 280.773 28.7273C278.833 27.4545 276.455 26.8182 273.636 26.8182C271.576 26.8182 269.773 27.1515 268.227 27.8182C266.697 28.4848 265.5 29.4015 264.636 30.5682C263.788 31.7348 263.364 33.0606 263.364 34.5455C263.364 35.7879 263.659 36.8561 264.25 37.75C264.856 38.6288 265.629 39.3636 266.568 39.9545C267.508 40.5303 268.492 41.0076 269.523 41.3864C270.553 41.75 271.5 42.0455 272.364 42.2727L277.091 43.5455C278.303 43.8636 279.652 44.303 281.136 44.8636C282.636 45.4242 284.068 46.1894 285.432 47.1591C286.811 48.1136 287.947 49.3409 288.841 50.8409C289.735 52.3409 290.182 54.1818 290.182 56.3636C290.182 58.8788 289.523 61.1515 288.205 63.1818C286.902 65.2121 284.992 66.8258 282.477 68.0227C279.977 69.2197 276.939 69.8182 273.364 69.8182C270.03 69.8182 267.144 69.2803 264.705 68.2045C262.28 67.1288 260.371 65.6288 258.977 63.7045C257.598 61.7803 256.818 59.5455 256.636 57H262.455C262.606 58.7576 263.197 60.2121 264.227 61.3636C265.273 62.5 266.591 63.3485 268.182 63.9091C269.788 64.4545 271.515 64.7273 273.364 64.7273C275.515 64.7273 277.447 64.3788 279.159 63.6818C280.871 62.9697 282.227 61.9848 283.227 60.7273C284.227 59.4545 284.727 57.9697 284.727 56.2727C284.727 54.7273 284.295 53.4697 283.432 52.5C282.568 51.5303 281.432 50.7424 280.023 50.1364C278.614 49.5303 277.091 49 275.455 48.5455L269.727 46.9091C266.091 45.8636 263.212 44.3712 261.091 42.4318C258.97 40.4924 257.909 37.9545 257.909 34.8182C257.909 32.2121 258.614 29.9394 260.023 28C261.447 26.0455 263.356 24.5303 265.75 23.4545C268.159 22.3636 270.848 21.8182 273.818 21.8182C276.818 21.8182 279.485 22.3561 281.818 23.4318C284.152 24.4924 286 25.947 287.364 27.7955C288.742 29.6439 289.47 31.7424 289.545 34.0909H284.091Z" fill="white"/>
</svg>
